<?xml version="1.0" encoding="utf-8"?>
<!-- Generator: Adobe Illustrator 28.1.0, SVG Export Plug-In . SVG Version: 6.00 Build 0)  -->
<svg version="1.1" id="Layer_1" xmlns="http://www.w3.org/2000/svg" xmlns:xlink="http://www.w3.org/1999/xlink" x="0px" y="0px"
	 viewBox="0 0 756.5 1417.3" style="enable-background:new 0 0 756.5 1417.3;" xml:space="preserve">
<style type="text/css">
	.st0{fill:#5F785F;}
	.st1{clip-path:url(#SVGID_00000068650394596618317510000005189211914301540255_);}
	.st2{fill:#1A1B33;}
</style>
<g>
	<path class="st0" d="M678.4,1417.3H78.1c-43.1,0-78.1-35-78.1-78.1V78.1C0,35,35,0,78.1,0h600.3c43.1,0,78.1,35,78.1,78.1v1261.2
		C756.5,1382.4,721.5,1417.3,678.4,1417.3"/>
	<g>
		<defs>
			<path id="SVGID_1_" d="M78.1,0h600.3c43.1,0,78.1,35,78.1,78.1v1261.2c0,43.1-35,78.1-78.1,78.1H78.1c-43.1,0-78.1-35-78.1-78.1
				V78.1C0,35,35,0,78.1,0z"/>
		</defs>
		<clipPath id="SVGID_00000116957321326603807270000000035844393353872770_">
			<use xlink:href="#SVGID_1_"  style="overflow:visible;"/>
		</clipPath>
		<g style="clip-path:url(#SVGID_00000116957321326603807270000000035844393353872770_);">
			<path class="st2" d="M229.2-24.1c-5.1,68.1-60,123.1-128,128.4c-29.6,2.3-57.5-4.8-81.1-18.5c-13-7.6-24.7-17.3-34.7-28.5
				C-35.3,33.6-48.2,3.1-49.2-30.5v-218h34.6v210c0,1.2-0.1,2.4-0.1,3.6s0,2.4,0.1,3.6c1,29.4,14.2,55.8,34.7,74.2
				C40.8,61.7,69,72.3,99.6,69.6c50.8-4.5,91.5-46,95.1-96.9c4.2-61.1-44.3-112.2-104.5-112.2c-11.1,0-21.8,1.7-31.8,4.9
				c-2.2,0.7-3.6,2.7-3.6,5v93H20.1v-211.8h34.7v78.8c11.3-3,23.2-4.6,35.4-4.6C170.6-174.2,235.3-105.8,229.2-24.1"/>
			<path class="st2" d="M855.1-24.1C850,43.9,795.1,99,727,104.2c-29.6,2.3-57.5-4.8-81.1-18.5c-13-7.6-24.7-17.3-34.7-28.5
				C590.6,33.6,577.7,3,576.6-30.5v-217.9h34.7v210.1c0,1.2-0.1,2.4-0.1,3.6s0,2.4,0.1,3.6c1,29.4,14.2,55.8,34.7,74.2
				c20.7,18.7,48.9,29.2,79.5,26.5c50.8-4.5,91.5-46,95.1-96.9c4.2-61.1-44.3-112.2-104.5-112.2c-11.1,0-21.8,1.7-31.8,4.9
				c-2.2,0.7-3.6,2.7-3.6,5v93H646v-211.8h34.7v78.8c11.3-3,23.2-4.6,35.4-4.6C796.4-174.2,861.2-105.8,855.1-24.1"/>
			<path class="st2" d="M229.2,363c-5.1,68.1-60,123.1-128,128.4c-29.6,2.3-57.5-4.8-81.1-18.5c-13-7.6-24.7-17.3-34.7-28.5
				c-20.7-23.5-33.6-54.1-34.7-87.6V138.8h34.6v210.1c0,1.2-0.1,2.4-0.1,3.6s0,2.4,0.1,3.6c1,29.4,14.2,55.8,34.7,74.2
				c20.7,18.7,48.9,29.2,79.5,26.5c50.8-4.5,91.5-46,95.1-96.9c4.2-61.1-44.3-112.2-104.5-112.2c-11.1,0-21.8,1.7-31.8,4.9
				c-2.2,0.7-3.6,2.7-3.6,5v93H20.1V138.7h34.7v78.8c11.3-3,23.2-4.6,35.4-4.6C170.6,213,235.3,281.4,229.2,363"/>
			<path class="st2" d="M542.1,169.4c-5.1,68.1-60,123.1-128,128.4c-29.6,2.3-57.5-4.8-81.1-18.5c-13-7.6-24.7-17.3-34.6-28.5
				c-20.7-23.5-33.6-54.1-34.6-87.6V-54.8h34.6v210.1c0,1.2-0.1,2.4-0.1,3.6s0,2.4,0.1,3.6c1,29.4,14.2,55.8,34.6,74.2
				c20.7,18.7,48.9,29.2,79.5,26.5c50.8-4.5,91.5-46,95.1-96.9C511.9,105.1,463.3,54,403.1,54c-11.1,0-21.8,1.7-31.8,4.9
				c-2.1,0.7-3.6,2.7-3.6,5v93h-34.6V-54.8h34.6V24c11.3-3,23.1-4.6,35.4-4.6C483.5,19.4,548.2,87.8,542.1,169.4"/>
			<path class="st2" d="M855.1,363c-5.1,68.1-60,123.1-128,128.4c-29.6,2.3-57.5-4.8-81.1-18.5c-13-7.6-24.7-17.3-34.7-28.5
				c-20.7-23.5-33.6-54.1-34.7-87.6V138.8h34.7v210.1c0,1.2-0.1,2.4-0.1,3.6s0,2.4,0.1,3.6c1,29.4,14.2,55.8,34.7,74.2
				c20.7,18.7,48.9,29.2,79.5,26.5c50.8-4.5,91.5-46,95.1-96.9c4.2-61.1-44.3-112.2-104.5-112.2c-11.1,0-21.8,1.7-31.8,4.9
				c-2.2,0.7-3.6,2.7-3.6,5v93H646V138.7h34.7v78.8c11.3-3,23.2-4.6,35.4-4.6C796.4,213,861.2,281.4,855.1,363"/>
			<path class="st2" d="M229.2,750.2c-5.1,68.1-60,123.1-128,128.4c-29.6,2.3-57.5-4.8-81.1-18.5c-13-7.6-24.7-17.3-34.7-28.5
				c-20.7-23.5-33.6-54.1-34.7-87.6v-218h34.6v210c0,1.2-0.1,2.4-0.1,3.6s0,2.4,0.1,3.6c1,29.4,14.2,55.8,34.7,74.2
				c20.7,18.7,48.9,29.2,79.5,26.5c50.8-4.5,91.5-46,95.1-96.9c4.2-61.1-44.3-112.2-104.5-112.2c-11.1,0-21.8,1.7-31.8,4.9
				c-2.2,0.7-3.6,2.7-3.6,5v93H20.1V525.9h34.7v78.8c11.3-3,23.2-4.6,35.4-4.6C170.6,600.2,235.3,668.6,229.2,750.2"/>
			<path class="st2" d="M542.1,556.6c-5.1,68.1-60,123.1-128,128.4c-29.6,2.3-57.5-4.8-81.1-18.5c-13-7.6-24.7-17.3-34.6-28.5
				c-20.7-23.5-33.6-54.1-34.6-87.6v-218h34.6v210c0,1.2-0.1,2.4-0.1,3.6s0,2.4,0.1,3.6c1,29.4,14.2,55.8,34.6,74.2
				c20.7,18.7,48.9,29.2,79.5,26.5c50.8-4.5,91.5-46,95.1-96.9c4.2-61.1-44.3-112.2-104.5-112.2c-11.1,0-21.8,1.7-31.8,4.9
				c-2.1,0.7-3.6,2.7-3.6,5v93h-34.6V332.3h34.6v78.8c11.3-3,23.1-4.6,35.4-4.6C483.5,406.6,548.2,475,542.1,556.6"/>
			<path class="st2" d="M855.1,750.2c-5.1,68.1-60,123.1-128,128.4c-29.6,2.3-57.5-4.8-81.1-18.5c-13-7.6-24.7-17.3-34.7-28.5
				c-20.7-23.5-33.6-54.1-34.7-87.6v-218h34.7v210c0,1.2-0.1,2.4-0.1,3.6s0,2.4,0.1,3.6c1,29.4,14.2,55.8,34.7,74.2
				c20.7,18.7,48.9,29.2,79.5,26.5c50.8-4.5,91.5-46,95.1-96.9c4.2-61.1-44.3-112.2-104.5-112.2c-11.1,0-21.8,1.7-31.8,4.9
				c-2.2,0.7-3.6,2.7-3.6,5v93H646V525.9h34.7v78.8c11.3-3,23.2-4.6,35.4-4.6C796.4,600.2,861.2,668.6,855.1,750.2"/>
			<path class="st2" d="M229.2,1137.4c-5.1,68.1-60,123.1-128,128.4c-29.6,2.3-57.5-4.8-81.1-18.5c-13-7.6-24.7-17.3-34.7-28.5
				c-20.7-23.5-33.6-54.1-34.7-87.6v-218h34.6v210c0,1.2-0.1,2.4-0.1,3.6s0,2.4,0.1,3.6c1,29.4,14.2,55.8,34.7,74.2
				c20.7,18.7,48.9,29.2,79.5,26.5c50.8-4.5,91.5-46,95.1-96.9c4.2-61.1-44.3-112.2-104.5-112.2c-11.1,0-21.8,1.7-31.8,4.9
				c-2.2,0.7-3.6,2.7-3.6,5v93H20.1V913.1h34.7v78.8c11.3-3,23.2-4.6,35.4-4.6C170.6,987.3,235.3,1055.7,229.2,1137.4"/>
			<path class="st2" d="M542.1,943.8c-5.1,68.1-60,123.1-128,128.4c-29.6,2.3-57.5-4.8-81.1-18.5c-13-7.6-24.7-17.3-34.6-28.5
				c-20.7-23.5-33.6-54.1-34.6-87.6v-218h34.6v210c0,1.2-0.1,2.4-0.1,3.6s0,2.4,0.1,3.6c1,29.4,14.2,55.8,34.6,74.2
				c20.7,18.7,48.9,29.2,79.5,26.5c50.8-4.5,91.5-46,95.1-96.9c4.2-61.1-44.3-112.2-104.5-112.2c-11.1,0-21.8,1.7-31.8,4.9
				c-2.1,0.7-3.6,2.7-3.6,5v93h-34.6V719.5h34.6v78.8c11.3-3,23.1-4.6,35.4-4.6C483.5,793.7,548.2,862.1,542.1,943.8"/>
			<path class="st2" d="M855.1,1137.4c-5.1,68.1-60,123.1-128,128.4c-29.6,2.3-57.5-4.8-81.1-18.5c-13-7.6-24.7-17.3-34.7-28.5
				c-20.7-23.5-33.6-54.1-34.7-87.6v-218h34.7v210c0,1.2-0.1,2.4-0.1,3.6s0,2.4,0.1,3.6c1,29.4,14.2,55.8,34.7,74.2
				c20.7,18.7,48.9,29.2,79.5,26.5c50.8-4.5,91.5-46,95.1-96.9c4.2-61.1-44.3-112.2-104.5-112.2c-11.1,0-21.8,1.7-31.8,4.9
				c-2.2,0.7-3.6,2.7-3.6,5v93H646V913.1h34.7v78.8c11.3-3,23.2-4.6,35.4-4.6C796.4,987.3,861.2,1055.7,855.1,1137.4"/>
			<path class="st2" d="M229.2,1524.6c-5.1,68.1-60,123.1-128,128.4c-29.6,2.3-57.5-4.8-81.1-18.5c-13-7.6-24.7-17.3-34.7-28.5
				c-20.7-23.5-33.6-54.1-34.7-87.6v-217.9h34.6v210.1c0,1.2-0.1,2.4-0.1,3.6s0,2.4,0.1,3.6c1,29.4,14.2,55.8,34.7,74.2
				c20.7,18.7,48.9,29.2,79.5,26.5c50.8-4.5,91.5-46,95.1-96.9c4.2-61.1-44.3-112.2-104.5-112.2c-11.1,0-21.8,1.7-31.8,4.9
				c-2.2,0.7-3.6,2.7-3.6,5v93H20.1v-211.8h34.7v78.8c11.3-3,23.2-4.6,35.4-4.6C170.6,1374.5,235.3,1442.9,229.2,1524.6"/>
			<path class="st2" d="M542.1,1331c-5.1,68.1-60,123.1-128,128.4c-29.6,2.3-57.5-4.8-81.1-18.5c-13-7.6-24.7-17.3-34.6-28.5
				c-20.7-23.5-33.6-54.1-34.6-87.6v-217.9h34.6v210.1c0,1.2-0.1,2.4-0.1,3.6s0,2.4,0.1,3.6c1,29.4,14.2,55.8,34.6,74.2
				c20.7,18.7,48.9,29.2,79.5,26.5c50.8-4.5,91.5-46,95.1-96.9c4.2-61.1-44.3-112.2-104.5-112.2c-11.1,0-21.8,1.7-31.8,4.9
				c-2.1,0.7-3.6,2.7-3.6,5v93h-34.6v-211.8h34.6v78.8c11.3-3,23.1-4.6,35.4-4.6C483.5,1180.9,548.2,1249.3,542.1,1331"/>
			<path class="st2" d="M855.1,1524.6c-5.1,68.1-60,123.1-128,128.4c-29.6,2.3-57.5-4.8-81.1-18.5c-13-7.6-24.7-17.3-34.7-28.5
				c-20.7-23.5-33.6-54.1-34.7-87.6v-217.9h34.7v210.1c0,1.2-0.1,2.4-0.1,3.6s0,2.4,0.1,3.6c1,29.4,14.2,55.8,34.7,74.2
				c20.7,18.7,48.9,29.2,79.5,26.5c50.8-4.5,91.5-46,95.1-96.9c4.2-61.1-44.3-112.2-104.5-112.2c-11.1,0-21.8,1.7-31.8,4.9
				c-2.2,0.7-3.6,2.7-3.6,5v93H646v-211.8h34.7v78.8c11.3-3,23.2-4.6,35.4-4.6C796.4,1374.5,861.2,1442.9,855.1,1524.6"/>
		</g>
	</g>
</g>
</svg>
