<?xml version="1.0" encoding="utf-8"?>
<!-- Generator: Adobe Illustrator 28.1.0, SVG Export Plug-In . SVG Version: 6.00 Build 0)  -->
<svg version="1.1" id="Layer_1" xmlns="http://www.w3.org/2000/svg" xmlns:xlink="http://www.w3.org/1999/xlink" x="0px" y="0px"
	 viewBox="0 0 113.4 113.2" style="enable-background:new 0 0 113.4 113.2;" xml:space="preserve">
<style type="text/css">
	.st0{clip-path:url(#SVGID_00000023983588893077500030000010406209403371369661_);fill:#1B1B33;}
	.st1{clip-path:url(#SVGID_00000165218240247096540400000017581433587193966011_);fill:#0249F7;}
	.st2{clip-path:url(#SVGID_00000165218240247096540400000017581433587193966011_);fill:#E93B2C;}
	
		.st3{clip-path:url(#SVGID_00000165218240247096540400000017581433587193966011_);fill:none;stroke:#FFFFFF;stroke-width:0.75;stroke-linecap:round;stroke-miterlimit:10;}
	.st4{clip-path:url(#SVGID_00000165229396417381823290000014690182761870002570_);fill:#0249F7;}
	.st5{clip-path:url(#SVGID_00000165229396417381823290000014690182761870002570_);fill:#FFFFFF;}
	.st6{clip-path:url(#SVGID_00000005225812177516374770000014191221149046454679_);}
	.st7{clip-path:url(#SVGID_00000109005647439533829600000000752268354077150128_);fill:#6495E2;}
	.st8{clip-path:url(#SVGID_00000109005647439533829600000000752268354077150128_);fill:#2B6CED;}
	.st9{clip-path:url(#SVGID_00000109005647439533829600000000752268354077150128_);fill:#0249F7;}
	.st10{clip-path:url(#SVGID_00000109005647439533829600000000752268354077150128_);}
	.st11{clip-path:url(#SVGID_00000016783046682767152820000008743443277300916912_);}
	.st12{opacity:0.35;clip-path:url(#SVGID_00000020372375114252160920000014663640953446513801_);}
	.st13{clip-path:url(#SVGID_00000128452447746081966920000001464825664345925760_);}
	
		.st14{clip-path:url(#SVGID_00000067211506024642419990000013557403984443508406_);fill:none;stroke:#0249F7;stroke-width:0.277;stroke-miterlimit:10;}
	.st15{clip-path:url(#SVGID_00000079480482608023175860000000505191226133568674_);}
	
		.st16{clip-path:url(#SVGID_00000019678609608323395400000004117283219495542197_);fill:none;stroke:#0249F7;stroke-width:0.277;stroke-miterlimit:10;}
	.st17{clip-path:url(#SVGID_00000014609585572503649570000003994424905032193945_);}
	
		.st18{clip-path:url(#SVGID_00000134958212519974672790000010641370316937740711_);fill:none;stroke:#0249F7;stroke-width:0.277;stroke-miterlimit:10;}
	.st19{clip-path:url(#SVGID_00000091006183149929802410000014926653931078260154_);}
	
		.st20{clip-path:url(#SVGID_00000101092622361164991710000001934222532849685668_);fill:none;stroke:#0249F7;stroke-width:0.277;stroke-miterlimit:10;}
	.st21{clip-path:url(#SVGID_00000129195674423463323320000004571330284376670622_);}
	
		.st22{clip-path:url(#SVGID_00000017503918827880526610000004078740126340646822_);fill:none;stroke:#0249F7;stroke-width:0.277;stroke-miterlimit:10;}
	.st23{clip-path:url(#SVGID_00000020372375114252160920000014663640953446513801_);}
	.st24{opacity:0.48;clip-path:url(#SVGID_00000116922929150989372180000001691419193546825147_);}
	.st25{clip-path:url(#SVGID_00000059996710502355351930000008621968171081166979_);}
	.st26{opacity:0.33;clip-path:url(#SVGID_00000110471587677661149300000000379464874198268819_);}
	.st27{clip-path:url(#SVGID_00000100348645552270791380000014473783204701837220_);}
	
		.st28{clip-path:url(#SVGID_00000120559016038164368000000013591158502922400694_);fill:none;stroke:#CFB2CD;stroke-width:2.483;stroke-miterlimit:10;}
	.st29{clip-path:url(#SVGID_00000172440597309061119050000001089661221569359759_);}
	
		.st30{clip-path:url(#SVGID_00000016039860894578658790000009736266317899274905_);fill:none;stroke:#CFB2CD;stroke-width:2.483;stroke-miterlimit:10;}
	.st31{clip-path:url(#SVGID_00000066496473341596258570000001150530915796893590_);fill:#1B1B33;}
	.st32{opacity:0.6;clip-path:url(#SVGID_00000150088076084626546340000000319413348736453023_);}
	.st33{clip-path:url(#SVGID_00000032622306577736484360000014188456334509281461_);}
	.st34{opacity:0.33;clip-path:url(#SVGID_00000133525602307825878860000016575923830764783289_);}
	.st35{clip-path:url(#SVGID_00000008142935342456499380000007067226618626341282_);}
	.st36{clip-path:url(#SVGID_00000116937519880988321350000009554499898896450210_);fill:#0249F7;}
	.st37{clip-path:url(#SVGID_00000147209366330251955560000005471076024417629366_);}
	.st38{clip-path:url(#SVGID_00000065796299485170751280000000842067613557670807_);fill:#0249F7;}
	.st39{clip-path:url(#SVGID_00000117645831461719913800000016505796936368473247_);}
	.st40{clip-path:url(#SVGID_00000153703788156348543630000016707243359202715326_);fill:#0249F7;}
	.st41{clip-path:url(#SVGID_00000088121566160127988250000006874402254384633265_);}
	.st42{clip-path:url(#SVGID_00000026120884271345402270000000325487183398188183_);fill:#0249F7;}
	.st43{clip-path:url(#SVGID_00000025442842696789755560000013004370447157378209_);}
	.st44{clip-path:url(#SVGID_00000124874420610233598790000018011963671651079305_);fill:#0249F7;}
	.st45{clip-path:url(#SVGID_00000000931103103808902470000002028688660915083409_);}
	.st46{clip-path:url(#SVGID_00000084520205849077534440000005611592317909613754_);fill:#0249F7;}
	.st47{clip-path:url(#SVGID_00000107568592856312650750000017589431644204515736_);}
	.st48{clip-path:url(#SVGID_00000090285177807343995880000009775944807880951437_);fill:#0249F7;}
	.st49{clip-path:url(#SVGID_00000078753379862661434320000011476901070633715886_);}
	.st50{clip-path:url(#SVGID_00000043416099352777030320000003836330324728234672_);fill:#0249F7;}
	.st51{clip-path:url(#SVGID_00000160902773278441275190000004909202976228710030_);}
	.st52{clip-path:url(#SVGID_00000071557427495492851360000012875054070995628949_);fill:#0249F7;}
	.st53{clip-path:url(#SVGID_00000093137541970300517410000009449700413528847267_);}
	.st54{clip-path:url(#SVGID_00000157996056992118535440000011129724688993504184_);fill:#0249F7;}
	.st55{clip-path:url(#SVGID_00000181809473001608537560000013364483877727300799_);}
	.st56{clip-path:url(#SVGID_00000090282754628114405750000003097503690645757067_);fill:#0249F7;}
	.st57{opacity:0.48;clip-path:url(#SVGID_00000020372375114252160920000014663640953446513801_);}
	.st58{clip-path:url(#SVGID_00000114051072949216871190000013987781720325601937_);}
	.st59{opacity:0.33;clip-path:url(#SVGID_00000065773920782272089180000008952692353953214615_);}
	.st60{clip-path:url(#SVGID_00000114770963074691241000000007082855197978760589_);}
	
		.st61{clip-path:url(#SVGID_00000031923531248946762790000000802248178770642314_);fill:none;stroke:#CFB2CD;stroke-width:5.264;stroke-miterlimit:10;}
	.st62{clip-path:url(#SVGID_00000155840448829367834940000009986011439473506438_);}
	.st63{clip-path:url(#SVGID_00000069385972681071960390000012377593890720682640_);}
	.st64{clip-path:url(#SVGID_00000068661246786297159940000013405257286519640501_);}
	.st65{clip-path:url(#SVGID_00000134938775434685582150000007842623767908390018_);}
	.st66{clip-path:url(#SVGID_00000037686980570908233250000010657666945210216876_);}
	.st67{clip-path:url(#SVGID_00000137115352988622631820000008552518589413952161_);}
	.st68{clip-path:url(#SVGID_00000108280625497847943170000005901555299067620507_);}
	.st69{clip-path:url(#SVGID_00000007403520169561867620000002647294765550115768_);}
	.st70{clip-path:url(#SVGID_00000121967352385697698550000015104659957707959952_);fill:#FFFFFF;}
	.st71{fill:none;}
	.st72{fill:#8EC13F;}
	.st73{fill:#32C7DF;}
	.st74{fill:#0249F7;}
	.st75{fill:#E93B2C;}
	.st76{fill:#0BAA4B;}
</style>
<g>
	<defs>
		<rect id="SVGID_00000049187148451598575070000004789251755950381489_" x="-2432.6" y="-1244.6" width="1080" height="1920"/>
	</defs>
	<clipPath id="SVGID_00000132056638160000475380000000461067937617209275_">
		<use xlink:href="#SVGID_00000049187148451598575070000004789251755950381489_"  style="overflow:visible;"/>
	</clipPath>
	<g style="clip-path:url(#SVGID_00000132056638160000475380000000461067937617209275_);">
		<defs>
			<rect id="SVGID_00000054235005532029949110000001471070222224824450_" x="-3474.4" y="-1217.3" width="963.6" height="1703.1"/>
		</defs>
		<clipPath id="SVGID_00000046325699106245573040000015180877165719687042_">
			<use xlink:href="#SVGID_00000054235005532029949110000001471070222224824450_"  style="overflow:visible;"/>
		</clipPath>
		<g style="clip-path:url(#SVGID_00000046325699106245573040000015180877165719687042_);">
			<defs>
				<rect id="SVGID_00000149351030530265346360000004940766579959008686_" x="-3513.5" y="-1366" width="1080" height="1920"/>
			</defs>
			<clipPath id="SVGID_00000081646784482070273000000002575027818791754174_">
				<use xlink:href="#SVGID_00000149351030530265346360000004940766579959008686_"  style="overflow:visible;"/>
			</clipPath>
			<g style="opacity:0.48;clip-path:url(#SVGID_00000081646784482070273000000002575027818791754174_);">
				<g>
					<defs>
						
							<rect id="SVGID_00000080204619816871126080000005525569034733760933_" x="-2449.8" y="-3114.8" width="5826.7" height="5384"/>
					</defs>
					<clipPath id="SVGID_00000045578075106057741520000014046081597094419340_">
						<use xlink:href="#SVGID_00000080204619816871126080000005525569034733760933_"  style="overflow:visible;"/>
					</clipPath>
					<g style="clip-path:url(#SVGID_00000045578075106057741520000014046081597094419340_);">
						<defs>
							<rect id="SVGID_00000044861999336273961540000005399907515173377681_" x="-93.5" y="-1365.7" width="1080" height="1920"/>
						</defs>
						<clipPath id="SVGID_00000105390544059031695820000012151110614311728555_">
							<use xlink:href="#SVGID_00000044861999336273961540000005399907515173377681_"  style="overflow:visible;"/>
						</clipPath>
					</g>
				</g>
			</g>
		</g>
	</g>
</g>
<g>
	<defs>
		<rect id="SVGID_00000003800093395938764870000016842728063831751858_" x="-2432.6" y="-1244.6" width="1080" height="1920"/>
	</defs>
	<clipPath id="SVGID_00000036232521778935569930000002503952766943848325_">
		<use xlink:href="#SVGID_00000003800093395938764870000016842728063831751858_"  style="overflow:visible;"/>
	</clipPath>
	<g style="clip-path:url(#SVGID_00000036232521778935569930000002503952766943848325_);">
		<defs>
			<rect id="SVGID_00000067215987718803563550000009037755590394016178_" x="-232.6" y="-1244.6" width="1080" height="1920"/>
		</defs>
		<clipPath id="SVGID_00000065070682685338921820000001337036785590136459_">
			<use xlink:href="#SVGID_00000067215987718803563550000009037755590394016178_"  style="overflow:visible;"/>
		</clipPath>
		<g style="clip-path:url(#SVGID_00000065070682685338921820000001337036785590136459_);">
			<defs>
				<rect id="SVGID_00000164508827720429479380000008404208384512397222_" x="-232.6" y="-1244.6" width="1080" height="1920"/>
			</defs>
			<clipPath id="SVGID_00000103267138279768932310000002356397727561251485_">
				<use xlink:href="#SVGID_00000164508827720429479380000008404208384512397222_"  style="overflow:visible;"/>
			</clipPath>
			<g style="clip-path:url(#SVGID_00000103267138279768932310000002356397727561251485_);">
				<defs>
					<rect id="SVGID_00000143583836784336561640000017430096579625669046_" x="-232.6" y="-1244.6" width="1080" height="1920"/>
				</defs>
				<clipPath id="SVGID_00000080915758307152394300000009333126620828764092_">
					<use xlink:href="#SVGID_00000143583836784336561640000017430096579625669046_"  style="overflow:visible;"/>
				</clipPath>
			</g>
		</g>
	</g>
</g>
<g>
	
		<image style="overflow:visible;" width="773" height="773" xlink:href="A6E596A4.png"  transform="matrix(0.24 0 0 0.24 -36.0057 -36.1187)">
	</image>
</g>
<g>
	<g>
		<path class="st76" d="M60.5,0v3.7c27.5,2,49.2,24.9,49.2,52.9c0,28-21.8,50.9-49.2,52.9v3.7c29.5-2,52.9-26.6,52.9-56.6
			C113.4,26.6,90,2,60.5,0"/>
		<path class="st76" d="M56.7,109.6v3.7c1.3,0,2.5-0.1,3.8-0.1v-3.7C59.2,109.5,58,109.6,56.7,109.6"/>
		<path class="st76" d="M3.7,56.6c0-28,21.8-50.9,49.2-52.9V0C23.4,2,0,26.6,0,56.6c0,30,23.4,54.6,52.9,56.6v-3.7
			C25.4,107.5,3.7,84.5,3.7,56.6"/>
		<path class="st76" d="M52.9,109.4v3.7c1.3,0.1,2.5,0.1,3.8,0.1v-3.7C55.4,109.6,54.1,109.5,52.9,109.4"/>
	</g>
	<g>
		<path class="st76" d="M19.7,54.6v-1.8h62.6c3.8-0.1,7.1-2,8.6-5.1c0.1-0.2,2.3-4.8-0.3-8.1c0,0-2.4-3-5.6-2.3
			c-2.4,0.5-4.3,3-4.4,5.8l-1.8-0.1c0.1-3.7,2.5-6.8,5.8-7.5c4.3-0.9,7.3,2.8,7.4,3c3.4,4.2,0.6,9.8,0.5,10.1
			c-1.8,3.6-5.7,6-10.2,6.1H19.7z"/>
		<path class="st76" d="M78.4,88.7c-1.8,0-3.5-0.4-5.1-1.3c-5.3-2.9-5.7-9.3-5.7-9.6l1.8-0.1c0,0.2,0.3,5.6,4.8,8.1
			c3.7,2,8.5,1.1,11.5-2.1c2.9-3.2,3-7.7,1.7-10.8c-1.7-4.1-6-6.7-10.7-6.5l-57,0v-1.8h56.9c5.4-0.2,10.4,2.9,12.4,7.6
			c1.8,4.4,1,9.4-2,12.7C84.8,87.4,81.6,88.7,78.4,88.7z"/>
		<path class="st76" d="M65,42.9c-5.1,0-9.2-4.1-9.2-9.2c0-5.1,4.1-9.2,9.2-9.2c5.1,0,9.2,4.1,9.2,9.2C74.2,38.8,70.1,42.9,65,42.9z
			 M65,26.4c-4.1,0-7.4,3.3-7.4,7.4c0,4.1,3.3,7.4,7.4,7.4c4.1,0,7.4-3.3,7.4-7.4C72.4,29.7,69.1,26.4,65,26.4z"/>
		<rect x="29.9" y="41.8" class="st76" width="18.5" height="1.8"/>
		<path class="st76" d="M49,82.7c-1.7,0-3.4-0.7-4.8-2c-1.5-1.4-2.3-3.4-2.3-5.5l1.8,0c0,1.5,0.6,3,1.7,4.1c1.1,1,2.5,1.5,3.8,1.4
			c2.7-0.2,4.9-2.7,4.8-5.6l1.8-0.1c0.1,3.8-2.8,7.2-6.5,7.4C49.3,82.7,49.1,82.7,49,82.7z"/>
	</g>
</g>
</svg>
