<?xml version="1.0" encoding="utf-8"?>
<!-- Generator: Adobe Illustrator 28.1.0, SVG Export Plug-In . SVG Version: 6.00 Build 0)  -->
<svg version="1.1" id="Layer_1" xmlns="http://www.w3.org/2000/svg" xmlns:xlink="http://www.w3.org/1999/xlink" x="0px" y="0px"
	 viewBox="0 0 113.5 113.4" style="enable-background:new 0 0 113.5 113.4;" xml:space="preserve">
<style type="text/css">
	.st0{clip-path:url(#SVGID_00000179620005218822600620000008380398247238853267_);fill:#1B1B33;}
	.st1{clip-path:url(#SVGID_00000059269864557825873000000001235673952298917776_);fill:#0249F7;}
	.st2{clip-path:url(#SVGID_00000059269864557825873000000001235673952298917776_);fill:#E93B2C;}
	
		.st3{clip-path:url(#SVGID_00000059269864557825873000000001235673952298917776_);fill:none;stroke:#FFFFFF;stroke-width:0.75;stroke-linecap:round;stroke-miterlimit:10;}
	.st4{clip-path:url(#SVGID_00000014623664245924303730000003871301593460181412_);fill:#0249F7;}
	.st5{clip-path:url(#SVGID_00000014623664245924303730000003871301593460181412_);fill:#FFFFFF;}
	.st6{clip-path:url(#SVGID_00000031208348510699444140000003791934165992252577_);}
	.st7{clip-path:url(#SVGID_00000057139119712342121770000014446656717552398227_);fill:#6495E2;}
	.st8{clip-path:url(#SVGID_00000057139119712342121770000014446656717552398227_);fill:#2B6CED;}
	.st9{clip-path:url(#SVGID_00000057139119712342121770000014446656717552398227_);fill:#0249F7;}
	.st10{clip-path:url(#SVGID_00000057139119712342121770000014446656717552398227_);}
	.st11{clip-path:url(#SVGID_00000099660846431941010230000008128015722734432944_);}
	.st12{opacity:0.35;clip-path:url(#SVGID_00000013872318893667484450000010220689650646359441_);}
	.st13{clip-path:url(#SVGID_00000103955028182758492840000008007279843027249305_);}
	
		.st14{clip-path:url(#SVGID_00000113333065541929868200000016877026971741358757_);fill:none;stroke:#0249F7;stroke-width:0.277;stroke-miterlimit:10;}
	.st15{clip-path:url(#SVGID_00000054254183942788224700000013930065889406494116_);}
	
		.st16{clip-path:url(#SVGID_00000040535404025474980620000014430059291143248831_);fill:none;stroke:#0249F7;stroke-width:0.277;stroke-miterlimit:10;}
	.st17{clip-path:url(#SVGID_00000064326860311225254570000015917718425480909989_);}
	
		.st18{clip-path:url(#SVGID_00000080178202611758075020000007139146771502767293_);fill:none;stroke:#0249F7;stroke-width:0.277;stroke-miterlimit:10;}
	.st19{clip-path:url(#SVGID_00000017496586528157253220000007492715146910855048_);}
	
		.st20{clip-path:url(#SVGID_00000143579603527057382050000000051723835821689497_);fill:none;stroke:#0249F7;stroke-width:0.277;stroke-miterlimit:10;}
	.st21{clip-path:url(#SVGID_00000160159302516743460190000005504741588764804784_);}
	
		.st22{clip-path:url(#SVGID_00000054252284469014363420000007281091124740262548_);fill:none;stroke:#0249F7;stroke-width:0.277;stroke-miterlimit:10;}
	.st23{clip-path:url(#SVGID_00000013872318893667484450000010220689650646359441_);}
	.st24{opacity:0.48;clip-path:url(#SVGID_00000082358257703082754550000011140976978228419256_);}
	.st25{clip-path:url(#SVGID_00000021829687479777846050000014570243356755735189_);}
	.st26{opacity:0.33;clip-path:url(#SVGID_00000118360933857726559390000008986809708958828713_);}
	.st27{clip-path:url(#SVGID_00000067215961654921390230000005198241440086435771_);}
	
		.st28{clip-path:url(#SVGID_00000164481859731338159890000007906816188779196035_);fill:none;stroke:#CFB2CD;stroke-width:2.483;stroke-miterlimit:10;}
	.st29{clip-path:url(#SVGID_00000154388486882966984910000010654341921087122316_);}
	
		.st30{clip-path:url(#SVGID_00000060749996077687781720000012498069947310974603_);fill:none;stroke:#CFB2CD;stroke-width:2.483;stroke-miterlimit:10;}
	.st31{clip-path:url(#SVGID_00000140706435582687311820000000558716783198264214_);fill:#1B1B33;}
	.st32{opacity:0.6;clip-path:url(#SVGID_00000161615445086913697340000009416396208763371680_);}
	.st33{clip-path:url(#SVGID_00000008848736485905237330000008200188820627520953_);}
	.st34{opacity:0.33;clip-path:url(#SVGID_00000103230890808365629410000004981373853690107304_);}
	.st35{clip-path:url(#SVGID_00000083055654119454281090000006397206454208351151_);}
	.st36{clip-path:url(#SVGID_00000125587779311096813000000003933667663353127074_);fill:#0249F7;}
	.st37{clip-path:url(#SVGID_00000089545428892985264100000005291313401237679541_);}
	.st38{clip-path:url(#SVGID_00000067938991111469438300000018433009433314760122_);fill:#0249F7;}
	.st39{clip-path:url(#SVGID_00000109024273235343217280000009382317905096054445_);}
	.st40{clip-path:url(#SVGID_00000172427658952713826600000017804538273804651159_);fill:#0249F7;}
	.st41{clip-path:url(#SVGID_00000121975438157503281820000014473294216940517562_);}
	.st42{clip-path:url(#SVGID_00000067221377498641969990000004122827132082116745_);fill:#0249F7;}
	.st43{clip-path:url(#SVGID_00000127034996533119760370000006645892882602404536_);}
	.st44{clip-path:url(#SVGID_00000022561519596292015420000015199971487595684799_);fill:#0249F7;}
	.st45{clip-path:url(#SVGID_00000174571786211455303080000010853076314847996321_);}
	.st46{clip-path:url(#SVGID_00000095328766629654047880000006019023588564768161_);fill:#0249F7;}
	.st47{clip-path:url(#SVGID_00000127757027152986578220000014535964965465145743_);}
	.st48{clip-path:url(#SVGID_00000076579898049508815940000006764988128108060580_);fill:#0249F7;}
	.st49{clip-path:url(#SVGID_00000001662600875442622200000006634522075860807557_);}
	.st50{clip-path:url(#SVGID_00000098933693739927671150000004497231137139911042_);fill:#0249F7;}
	.st51{clip-path:url(#SVGID_00000004533954762775584530000001143880422371643019_);}
	.st52{clip-path:url(#SVGID_00000118389011800819569990000005072685377584972473_);fill:#0249F7;}
	.st53{clip-path:url(#SVGID_00000061437548908247486160000001058914234139942043_);}
	.st54{clip-path:url(#SVGID_00000165924527311951926610000013112590991720998563_);fill:#0249F7;}
	.st55{clip-path:url(#SVGID_00000121263449789500424410000010783241779087782331_);}
	.st56{clip-path:url(#SVGID_00000059306355746967926620000012370031723533396654_);fill:#0249F7;}
	.st57{opacity:0.48;clip-path:url(#SVGID_00000013872318893667484450000010220689650646359441_);}
	.st58{clip-path:url(#SVGID_00000178918275046603273580000011122059077535656838_);}
	.st59{opacity:0.33;clip-path:url(#SVGID_00000091732836509662159390000005095153663822812051_);}
	.st60{clip-path:url(#SVGID_00000053515364419819742140000000893381406297084815_);}
	
		.st61{clip-path:url(#SVGID_00000065064578853377496340000002441298777219699642_);fill:none;stroke:#CFB2CD;stroke-width:5.264;stroke-miterlimit:10;}
	.st62{clip-path:url(#SVGID_00000032612562067682902620000016445164409750095508_);}
	.st63{clip-path:url(#SVGID_00000043446336959281291250000007974705729989108905_);}
	.st64{clip-path:url(#SVGID_00000009586717919554891850000005410770668746304937_);}
	.st65{clip-path:url(#SVGID_00000136401655768714102800000006752398722266385817_);}
	.st66{clip-path:url(#SVGID_00000129906180069345015990000009811278842565214878_);}
	.st67{clip-path:url(#SVGID_00000088125215795262282250000011057704216690655385_);}
	.st68{clip-path:url(#SVGID_00000157273495785047442870000012826418712398838404_);}
	.st69{clip-path:url(#SVGID_00000158708878625031858280000015088672465802387595_);}
	.st70{clip-path:url(#SVGID_00000014604572415083316660000002697082312401996990_);fill:#FFFFFF;}
	.st71{fill:none;}
	.st72{fill:#8EC13F;}
	.st73{fill:#32C7DF;}
	.st74{fill:#0249F7;}
	.st75{fill:#E93B2C;}
	.st76{fill:#0BAA4B;}
</style>
<g>
	
		<image style="overflow:visible;" width="774" height="773" xlink:href="78BA99CB.png"  transform="matrix(0.24 0 0 0.24 -36.2136 -36.0471)">
	</image>
</g>
<g>
	<defs>
		<rect id="SVGID_00000049187148451598575070000004789251755950381489_" x="-1826.3" y="-1244.5" width="1080" height="1920"/>
	</defs>
	<clipPath id="SVGID_00000115472670503431753900000015399066990533503106_">
		<use xlink:href="#SVGID_00000049187148451598575070000004789251755950381489_"  style="overflow:visible;"/>
	</clipPath>
	<g style="clip-path:url(#SVGID_00000115472670503431753900000015399066990533503106_);">
		<defs>
			<rect id="SVGID_00000054235005532029949110000001471070222224824450_" x="-2868.1" y="-1217.3" width="963.6" height="1703.1"/>
		</defs>
		<clipPath id="SVGID_00000014619165595792246480000004538294589558722991_">
			<use xlink:href="#SVGID_00000054235005532029949110000001471070222224824450_"  style="overflow:visible;"/>
		</clipPath>
		<g style="clip-path:url(#SVGID_00000014619165595792246480000004538294589558722991_);">
			<defs>
				<rect id="SVGID_00000149351030530265346360000004940766579959008686_" x="-2907.3" y="-1365.9" width="1080" height="1920"/>
			</defs>
			<clipPath id="SVGID_00000078012800414733389670000000708070553597620390_">
				<use xlink:href="#SVGID_00000149351030530265346360000004940766579959008686_"  style="overflow:visible;"/>
			</clipPath>
			<g style="clip-path:url(#SVGID_00000078012800414733389670000000708070553597620390_);">
				<defs>
					<rect id="SVGID_00000145769154435951516120000002675008885844523648_" x="-1632.6" y="-1219.8" width="829.8" height="146.7"/>
				</defs>
				<clipPath id="SVGID_00000067226254384225896610000000717888707802680483_">
					<use xlink:href="#SVGID_00000145769154435951516120000002675008885844523648_"  style="overflow:visible;"/>
				</clipPath>
				<g style="opacity:0.48;clip-path:url(#SVGID_00000067226254384225896610000000717888707802680483_);">
					<g>
						<defs>
							
								<rect id="SVGID_00000098919759423111008430000010001220633459005877_" x="-2490.4" y="-2551" width="2539.8" height="2748.6"/>
						</defs>
						<clipPath id="SVGID_00000178921864962299614290000004386409520873444237_">
							<use xlink:href="#SVGID_00000098919759423111008430000010001220633459005877_"  style="overflow:visible;"/>
						</clipPath>
					</g>
				</g>
			</g>
			<g style="clip-path:url(#SVGID_00000078012800414733389670000000708070553597620390_);">
				<defs>
					<rect id="SVGID_00000171703094795451934770000003489425547604257952_" x="-1681.6" y="-250.8" width="908.1" height="404.5"/>
				</defs>
				<clipPath id="SVGID_00000015338168604388529160000016589857481706923193_">
					<use xlink:href="#SVGID_00000171703094795451934770000003489425547604257952_"  style="overflow:visible;"/>
				</clipPath>
				<g style="opacity:0.6;clip-path:url(#SVGID_00000015338168604388529160000016589857481706923193_);">
					<g>
						<defs>
							
								<rect id="SVGID_00000180352724810729219600000009167963772971343515_" x="-2320.5" y="-1684.8" width="2407.7" height="3188.2"/>
						</defs>
						<clipPath id="SVGID_00000106119906391643913780000007691807366997240453_">
							<use xlink:href="#SVGID_00000180352724810729219600000009167963772971343515_"  style="overflow:visible;"/>
						</clipPath>
					</g>
				</g>
			</g>
			<g style="opacity:0.48;clip-path:url(#SVGID_00000078012800414733389670000000708070553597620390_);">
				<g>
					<defs>
						
							<rect id="SVGID_00000080204619816871126080000005525569034733760933_" x="-1843.5" y="-3114.7" width="5826.7" height="5384"/>
					</defs>
					<clipPath id="SVGID_00000126311442266991810040000013049947054936093087_">
						<use xlink:href="#SVGID_00000080204619816871126080000005525569034733760933_"  style="overflow:visible;"/>
					</clipPath>
					<g style="clip-path:url(#SVGID_00000126311442266991810040000013049947054936093087_);">
						<defs>
							<rect id="SVGID_00000044861999336273961540000005399907515173377681_" x="512.8" y="-1365.7" width="1080" height="1920"/>
						</defs>
						<clipPath id="SVGID_00000121991027731004715570000010682646196208430502_">
							<use xlink:href="#SVGID_00000044861999336273961540000005399907515173377681_"  style="overflow:visible;"/>
						</clipPath>
					</g>
				</g>
			</g>
		</g>
	</g>
</g>
<g>
	<defs>
		<rect id="SVGID_00000003800093395938764870000016842728063831751858_" x="-1826.3" y="-1244.5" width="1080" height="1920"/>
	</defs>
	<clipPath id="SVGID_00000090270470440883183810000014395189533948361882_">
		<use xlink:href="#SVGID_00000003800093395938764870000016842728063831751858_"  style="overflow:visible;"/>
	</clipPath>
	<g style="clip-path:url(#SVGID_00000090270470440883183810000014395189533948361882_);">
		<defs>
			<rect id="SVGID_00000067215987718803563550000009037755590394016178_" x="373.7" y="-1244.5" width="1080" height="1920"/>
		</defs>
		<clipPath id="SVGID_00000048472764553372383290000007421028816429011870_">
			<use xlink:href="#SVGID_00000067215987718803563550000009037755590394016178_"  style="overflow:visible;"/>
		</clipPath>
		<g style="clip-path:url(#SVGID_00000048472764553372383290000007421028816429011870_);">
			<defs>
				<rect id="SVGID_00000164508827720429479380000008404208384512397222_" x="373.7" y="-1244.5" width="1080" height="1920"/>
			</defs>
			<clipPath id="SVGID_00000014597234927096399250000015847940218972602007_">
				<use xlink:href="#SVGID_00000164508827720429479380000008404208384512397222_"  style="overflow:visible;"/>
			</clipPath>
			<g style="clip-path:url(#SVGID_00000014597234927096399250000015847940218972602007_);">
				<defs>
					<rect id="SVGID_00000143583836784336561640000017430096579625669046_" x="373.7" y="-1244.5" width="1080" height="1920"/>
				</defs>
				<clipPath id="SVGID_00000134942239276618609080000001867728144586847920_">
					<use xlink:href="#SVGID_00000143583836784336561640000017430096579625669046_"  style="overflow:visible;"/>
				</clipPath>
			</g>
		</g>
	</g>
</g>
<g>
	<path class="st75" d="M34.5,84.8c-0.4,0-0.9-0.2-1.2-0.5c-0.7-0.7-0.8-1.8-0.1-2.6c3.7-4,5.5-8.1,5.4-12.2c0-0.6,0-2-2.2-7.6
		c-1.9-5-3.4-8.1-4.6-10.3c-1.4-2.9-2.4-4.8-2.6-7.6c-0.3-4.8,1.9-9.7,6.4-14.7c0.7-0.8,1.8-0.8,2.6-0.1c0.8,0.7,0.8,1.8,0.1,2.6
		c-3.8,4.3-5.7,8.3-5.4,12.1c0.1,2.1,0.8,3.5,2.2,6.2c1.2,2.3,2.8,5.5,4.7,10.7c2.2,5.7,2.4,7.6,2.4,8.8c0.1,5-2.1,10.1-6.4,14.8
		C35.5,84.6,35,84.8,34.5,84.8"/>
	<path class="st75" d="M55.5,84.8c-0.4,0-0.9-0.2-1.2-0.5c-0.7-0.7-0.8-1.8-0.1-2.6c3.7-4,5.5-8.1,5.4-12.2c0-0.6,0-2-2.2-7.6
		c-1.9-5-3.4-8.1-4.6-10.3c-1.4-2.9-2.4-4.8-2.6-7.6c-0.3-4.8,1.9-9.7,6.4-14.7c0.7-0.8,1.8-0.8,2.6-0.1c0.8,0.7,0.8,1.8,0.1,2.6
		c-3.8,4.3-5.7,8.3-5.4,12.1c0.1,2.1,0.8,3.5,2.2,6.2c1.2,2.3,2.8,5.5,4.7,10.7c2.2,5.7,2.4,7.6,2.4,8.8c0.1,5-2.1,10.1-6.4,14.8
		C56.5,84.6,56,84.8,55.5,84.8"/>
	<path class="st75" d="M76.5,84.8c-0.4,0-0.9-0.2-1.2-0.5c-0.7-0.7-0.8-1.8-0.1-2.6c3.7-4,5.5-8.1,5.4-12.2c0-0.6,0-2-2.2-7.6
		c-1.9-5-3.4-8.1-4.6-10.3c-1.4-2.9-2.4-4.8-2.6-7.6c-0.3-4.8,1.9-9.7,6.4-14.7c0.7-0.8,1.8-0.8,2.6-0.1c0.8,0.7,0.8,1.8,0.1,2.6
		c-3.8,4.3-5.7,8.3-5.4,12.1c0.1,2.1,0.8,3.5,2.2,6.2c1.2,2.3,2.8,5.5,4.7,10.7c2.2,5.7,2.4,7.6,2.4,8.8c0.1,5-2.1,10.1-6.4,14.8
		C77.5,84.6,77,84.8,76.5,84.8"/>
	<path class="st75" d="M60.6,0v3.7c27.5,2,49.3,25,49.3,52.9c0,28-21.8,51-49.3,52.9v3.7c29.5-2,53-26.6,53-56.6
		C113.5,26.6,90.1,2,60.6,0"/>
	<path class="st75" d="M56.8,109.7v3.7c1.3,0,2.5-0.1,3.8-0.1v-3.7C59.3,109.7,58,109.7,56.8,109.7"/>
	<path class="st75" d="M3.7,56.6c0-28,21.8-51,49.3-52.9V0C23.4,2,0,26.6,0,56.6c0,30,23.4,54.7,53,56.6v-3.7
		C25.5,107.6,3.7,84.6,3.7,56.6"/>
	<path class="st75" d="M53,109.6v3.7c1.3,0.1,2.5,0.1,3.8,0.1v-3.7C55.5,109.7,54.2,109.7,53,109.6"/>
</g>
</svg>
